<svg width="25" height="26" viewBox="0 0 25 26" fill="none" xmlns="http://www.w3.org/2000/svg">
<path d="M12.093 0C16.1003 2.44816e-05 19.3489 3.2486 19.3489 7.25586C19.3489 11.2631 16.1003 14.5117 12.093 14.5117C8.08576 14.5117 4.83718 11.2631 4.83716 7.25586C4.83716 3.24858 8.08574 0 12.093 0ZM12.093 2.41895C9.4215 2.41895 7.25513 4.58434 7.25513 7.25586C7.25515 9.92736 9.42152 12.0928 12.093 12.0928C14.7644 12.0926 16.9299 9.92728 16.9299 7.25586C16.9299 4.58442 14.7644 2.41907 12.093 2.41895Z" fill="#E9B751"/>
<path d="M0 17.0937C0 14.3323 2.23858 12.0938 5 12.0938H19.186C21.9475 12.0938 24.186 14.3323 24.186 17.0937V18.7739C24.186 22.2682 20.6769 24.7068 17.2834 23.8737C15.2823 23.3824 13.1849 23.0005 11.5 23.0005C10.1875 23.0005 8.71626 23.2322 7.27592 23.5669C3.7546 24.3851 0 21.9344 0 18.3193V17.0937Z" fill="#E9B751"/>
</svg>
