<svg width="26" height="26" viewBox="0 0 26 26" fill="none" xmlns="http://www.w3.org/2000/svg">
<path d="M15.1635 4.33398C15.5544 4.33398 15.9379 4.4397 16.2736 4.63996C16.6093 4.84021 16.8845 5.12753 17.0702 5.47148L17.5967 6.44648C17.7823 6.79043 18.0576 7.07776 18.3932 7.27801C18.7289 7.47827 19.1125 7.58399 19.5033 7.58398H21.6667C22.2414 7.58398 22.7925 7.81226 23.1988 8.21859C23.6051 8.62492 23.8334 9.17602 23.8334 9.75065V19.5007C23.8334 20.0753 23.6051 20.6264 23.1988 21.0327C22.7925 21.439 22.2414 21.6673 21.6667 21.6673H4.33341C3.75878 21.6673 3.20768 21.439 2.80135 21.0327C2.39502 20.6264 2.16675 20.0753 2.16675 19.5007V9.75065C2.16675 9.17602 2.39502 8.62492 2.80135 8.21859C3.20768 7.81226 3.75878 7.58398 4.33341 7.58398H6.49683C6.88729 7.58401 7.27049 7.47851 7.60593 7.27866C7.94136 7.07882 8.21656 6.79204 8.40241 6.44865L8.93216 5.46932C9.11802 5.12593 9.39322 4.83915 9.72865 4.6393C10.0641 4.43945 10.4473 4.33396 10.8377 4.33398H15.1635Z" fill="#FFFFF7" stroke="#FFFFF7" stroke-width="2" stroke-linecap="round" stroke-linejoin="round"/>
<path d="M13 17.334C14.7949 17.334 16.25 15.8789 16.25 14.084C16.25 12.2891 14.7949 10.834 13 10.834C11.2051 10.834 9.75 12.2891 9.75 14.084C9.75 15.8789 11.2051 17.334 13 17.334Z" stroke="#EFB758" stroke-width="2" stroke-linecap="round" stroke-linejoin="round"/>
</svg>
