<svg width="40" height="40" viewBox="0 0 40 40" fill="none" xmlns="http://www.w3.org/2000/svg">
<g clip-path="url(#clip0_1153_8404)">
<mask id="mask0_1153_8404" style="mask-type:luminance" maskUnits="userSpaceOnUse" x="0" y="0" width="40" height="40">
<path d="M40 0H0V40H40V0Z" fill="white"/>
</mask>
<g mask="url(#mask0_1153_8404)">
<path d="M39.2 20.4543C39.2 19.0361 39.0728 17.6725 38.8364 16.3633H20V24.0997H30.7636C30.3 26.5997 28.891 28.7179 26.7728 30.1361V35.1543H33.2364C37.0182 31.6725 39.2 26.5451 39.2 20.4543Z" fill="#4285F4"/>
<path d="M20 40.0008C25.4 40.0008 29.9272 38.2098 33.2362 35.1554L26.7726 30.1372C24.9818 31.3372 22.6908 32.0462 20 32.0462C14.7908 32.0462 10.3818 28.528 8.809 23.8008H2.1272V28.9826C5.4182 35.519 12.1818 40.0008 20 40.0008Z" fill="#34A853"/>
<path d="M8.809 23.8013C8.409 22.6013 8.1818 21.3195 8.1818 20.0013C8.1818 18.6831 8.409 17.4013 8.809 16.2013V11.0195H2.1272C0.772799 13.7195 0 16.7741 0 20.0013C0 23.2285 0.772799 26.2831 2.1272 28.9831L8.809 23.8013Z" fill="#FBBC04"/>
<path d="M20 7.9546C22.9362 7.9546 25.5726 8.9636 27.6454 10.9454L33.3818 5.209C29.9182 1.9818 25.3908 0 20 0C12.1818 0 5.4182 4.4818 2.1272 11.0182L8.809 16.2C10.3818 11.4728 14.7908 7.9546 20 7.9546Z" fill="#E94235"/>
</g>
</g>
<defs>
<clipPath id="clip0_1153_8404">
<rect width="40" height="40" fill="white"/>
</clipPath>
</defs>
</svg>
