<svg width="20" height="18" viewBox="0 0 20 18" fill="none" xmlns="http://www.w3.org/2000/svg">
<g clip-path="url(#clip0_921_2593)">
<path d="M18.3846 0H1C0.447715 0 0 0.447715 0 1V3.15385C0 3.70613 0.447715 4.15385 1 4.15385H18.3846C18.9369 4.15385 19.3846 3.70613 19.3846 3.15385V1C19.3846 0.447715 18.9369 0 18.3846 0Z" fill="#209F87"/>
<path d="M18.3846 6.92383H1C0.447715 6.92383 0 7.37154 0 7.92383V10.0777C0 10.63 0.447715 11.0777 1 11.0777H18.3846C18.9369 11.0777 19.3846 10.63 19.3846 10.0777V7.92383C19.3846 7.37154 18.9369 6.92383 18.3846 6.92383Z" fill="#209F87"/>
<path d="M10.0769 13.8457H1C0.447715 13.8457 0 14.2934 0 14.8457V16.9996C0 17.5518 0.447715 17.9996 1 17.9996H10.0769C10.6292 17.9996 11.0769 17.5518 11.0769 16.9996V14.8457C11.0769 14.2934 10.6292 13.8457 10.0769 13.8457Z" fill="#209F87"/>
</g>
<defs>
<clipPath id="clip0_921_2593">
<rect width="20" height="18" fill="white"/>
</clipPath>
</defs>
</svg>
